<svg width="148" height="70" viewBox="0 0 148 70" fill="none" xmlns="http://www.w3.org/2000/svg">
<circle cx="32.1472" cy="40.6785" r="28.3207" stroke="#CB1919" stroke-width="1.28438"/>
<path d="M46.2097 65.6599L38.1404 68.3359L38.1404 41.4484L46.2109 32.7874L46.2097 65.6599Z" fill="#CB1919"/>
<path d="M35.3906 69.25L27.3201 68.8521V50.699L35.3906 45.5V69.25Z" fill="#CB1919"/>
<path d="M24.5625 67.8984L16.492 64.5V56.1114L24.5625 51.9796V67.8984Z" fill="#CB1919"/>
<path d="M72.2952 7.50037L72.1165 8.4672L69.4889 22.7216L69.1775 24.4113L67.9169 23.2441L65.3152 20.8321C64.9622 21.2172 64.4879 21.7346 63.9475 22.3135C62.7976 23.5455 61.343 25.0738 60.1537 26.2278C57.421 28.8793 55.812 30.3191 52.8329 32.7027C48.315 36.3176 45.5866 38.1661 40.5896 41.0775C30.8519 46.751 24.8034 49.5595 13.7292 51.9889C11.6171 52.4522 10.0368 52.5547 8.9639 52.536C8.42795 52.5267 8.01931 52.4878 7.7354 52.4479C7.59347 52.428 7.48197 52.4073 7.40221 52.3911C7.36273 52.383 7.33083 52.3761 7.30652 52.3704L7.26455 52.3604C7.263 52.36 7.26118 52.3591 7.25985 52.3587L7.25695 52.3583C7.25654 52.3582 7.25553 52.3577 7.46013 51.5914L7.25599 52.3582L7.18295 52.3378L7.11338 52.3071L5.85751 51.7444L3.12144 50.5187L6.06595 49.9541L6.06692 49.9542C6.06789 49.954 6.06987 49.9534 6.07203 49.953C6.07686 49.9521 6.08509 49.9505 6.09537 49.9485C6.11593 49.9444 6.14715 49.9378 6.18889 49.9294C6.2727 49.9125 6.39876 49.8871 6.56408 49.8522C6.89489 49.7822 7.38397 49.6752 8.01069 49.5287C9.26472 49.2354 11.0703 48.7827 13.2658 48.1492C20.6002 46.0332 24.4668 43.9969 31.195 40.2271C37.2001 36.8624 40.4893 34.8016 45.7137 30.3911C49.2985 27.3649 51.0423 25.4003 54.3457 21.9561C55.4975 20.7553 56.9416 19.1793 58.1009 17.8991C58.6711 17.2694 59.1709 16.7129 59.5314 16.3103L57.1459 13.9245L56.1143 12.8939L57.4757 12.3737L70.5683 7.3721L70.7979 7.28479L72.2952 7.50037Z" fill="#CB1919" stroke="white" stroke-width="1.88996"/>
<path d="M74.6212 38C74.6212 37.3813 74.6212 36.7813 74.6212 36.2C74.6212 35.6187 74.6212 34.9733 74.6212 34.264V30.408C74.6212 29.6773 74.6212 29.016 74.6212 28.424C74.6212 27.832 74.6212 27.2213 74.6212 26.592H81.9172V28.472C81.4159 28.472 80.8746 28.472 80.2932 28.472C79.7172 28.472 79.0372 28.472 78.2532 28.472H75.9092L76.8212 26.936C76.8212 27.5653 76.8212 28.176 76.8212 28.768C76.8212 29.36 76.8212 30.0213 76.8212 30.752V34.264C76.8212 34.9733 76.8212 35.6187 76.8212 36.2C76.8212 36.7813 76.8212 37.3813 76.8212 38H74.6212ZM76.2612 33.272V31.464H78.3172C79.0266 31.464 79.6372 31.464 80.1492 31.464C80.6666 31.464 81.1626 31.464 81.6372 31.464V33.272C81.1306 33.272 80.6212 33.272 80.1092 33.272C79.6026 33.272 79.0026 33.272 78.3092 33.272H76.2612ZM84.68 38C84.68 37.3813 84.68 36.7813 84.68 36.2C84.68 35.6187 84.68 34.9733 84.68 34.264V30.408C84.68 29.6773 84.68 29.016 84.68 28.424C84.68 27.832 84.68 27.2213 84.68 26.592H86.968C86.968 27.2213 86.968 27.832 86.968 28.424C86.968 29.016 86.968 29.6773 86.968 30.408V34.264C86.968 34.9733 86.968 35.6187 86.968 36.2C86.968 36.7813 86.968 37.3813 86.968 38H84.68ZM90.2837 38C90.2837 37.3813 90.2837 36.7813 90.2837 36.2C90.2837 35.6187 90.2837 34.9733 90.2837 34.264V30.408C90.2837 29.6773 90.2837 29.016 90.2837 28.424C90.2837 27.832 90.2837 27.2213 90.2837 26.592H92.2517C92.8384 27.4293 93.3931 28.2267 93.9157 28.984C94.4437 29.7413 94.9691 30.496 95.4917 31.248L97.5477 34.2H97.7157V30.408C97.7157 29.6773 97.7157 29.016 97.7157 28.424C97.7157 27.832 97.7157 27.2213 97.7157 26.592H99.8277C99.8277 27.2213 99.8277 27.832 99.8277 28.424C99.8277 29.016 99.8277 29.6773 99.8277 30.408V34.264C99.8277 34.9733 99.8277 35.6187 99.8277 36.2C99.8277 36.7813 99.8277 37.3813 99.8277 38H97.8837C97.4037 37.3067 96.8997 36.584 96.3717 35.832C95.8437 35.0747 95.2651 34.2453 94.6357 33.344L92.5557 30.36H92.3877V34.264C92.3877 34.9733 92.3877 35.6187 92.3877 36.2C92.3877 36.7813 92.3877 37.3813 92.3877 38H90.2837ZM103.115 38C103.115 37.3813 103.115 36.7813 103.115 36.2C103.115 35.6187 103.115 34.9733 103.115 34.264V30.4C103.115 29.6747 103.115 29.016 103.115 28.424C103.115 27.832 103.115 27.2213 103.115 26.592C103.568 26.592 104.168 26.592 104.915 26.592C105.667 26.592 106.531 26.592 107.507 26.592C108.414 26.592 109.168 26.7067 109.771 26.936C110.374 27.1653 110.827 27.536 111.131 28.048C111.435 28.5547 111.587 29.232 111.587 30.08C111.587 30.8107 111.454 31.4587 111.187 32.024C110.92 32.584 110.488 33.024 109.891 33.344C109.294 33.6587 108.491 33.816 107.483 33.816C107.227 33.816 106.947 33.816 106.643 33.816C106.344 33.816 106.051 33.816 105.763 33.816C105.48 33.816 105.238 33.816 105.035 33.816V32.048H106.995C107.528 32.048 107.966 31.9813 108.307 31.848C108.648 31.7147 108.899 31.5067 109.059 31.224C109.224 30.936 109.307 30.5627 109.307 30.104C109.307 29.7307 109.248 29.432 109.131 29.208C109.014 28.9787 108.859 28.8053 108.667 28.688C108.475 28.5707 108.264 28.4907 108.035 28.448C107.806 28.4053 107.579 28.384 107.355 28.384H104.243L105.323 26.936C105.323 27.5653 105.323 28.1787 105.323 28.776C105.323 29.368 105.323 30.0267 105.323 30.752V34.264C105.323 34.9733 105.323 35.6187 105.323 36.2C105.323 36.7813 105.323 37.3813 105.323 38H103.115ZM112.45 38C112.658 37.3867 112.876 36.7413 113.106 36.064C113.335 35.3867 113.551 34.744 113.754 34.136L115.082 30.224C115.322 29.5147 115.538 28.8773 115.73 28.312C115.927 27.7413 116.122 27.168 116.314 26.592H119.21C119.407 27.1893 119.602 27.7707 119.794 28.336C119.986 28.9013 120.199 29.5307 120.434 30.224L121.746 34.144C121.959 34.7733 122.178 35.4213 122.402 36.088C122.626 36.7547 122.839 37.392 123.042 38H120.73C120.538 37.376 120.34 36.7333 120.138 36.072C119.935 35.4107 119.743 34.7867 119.562 34.2L117.826 28.52H117.65L115.898 34.136C115.706 34.7493 115.506 35.392 115.298 36.064C115.095 36.7307 114.895 37.376 114.698 38H112.45ZM114.986 35.456L115.21 33.76H120.538L120.722 35.456H114.986ZM125.449 38C125.449 37.3813 125.449 36.7813 125.449 36.2C125.449 35.6187 125.449 34.9733 125.449 34.264V30.4C125.449 29.6747 125.449 29.016 125.449 28.424C125.449 27.832 125.449 27.2213 125.449 26.592C125.78 26.592 126.169 26.592 126.617 26.592C127.065 26.592 127.545 26.592 128.057 26.592C128.575 26.592 129.105 26.592 129.649 26.592C130.556 26.592 131.321 26.696 131.945 26.904C132.569 27.1067 133.039 27.4427 133.353 27.912C133.673 28.3813 133.833 29.016 133.833 29.816C133.833 30.4613 133.705 31.048 133.449 31.576C133.199 32.104 132.788 32.5253 132.217 32.84C131.652 33.1493 130.9 33.3067 129.961 33.312L130.785 32.416L132.425 34.696C132.681 35.048 132.951 35.424 133.233 35.824C133.521 36.224 133.801 36.6133 134.073 36.992C134.351 37.3707 134.593 37.7067 134.801 38H132.241C131.927 37.5413 131.623 37.1013 131.329 36.68C131.041 36.2533 130.759 35.84 130.481 35.44L128.545 32.616L129.889 33.736H127.241V32H129.241C129.743 32 130.161 31.9413 130.497 31.824C130.839 31.7013 131.095 31.5013 131.265 31.224C131.436 30.9413 131.521 30.56 131.521 30.08C131.521 29.7067 131.463 29.408 131.345 29.184C131.233 28.96 131.081 28.7893 130.889 28.672C130.697 28.5547 130.487 28.4773 130.257 28.44C130.033 28.4027 129.807 28.384 129.577 28.384H126.065L127.641 26.936C127.641 27.5973 127.641 28.224 127.641 28.816C127.641 29.4027 127.641 30.048 127.641 30.752V34.264C127.641 34.9733 127.641 35.6187 127.641 36.2C127.641 36.7813 127.641 37.3813 127.641 38H125.449ZM143.906 38C143.501 37.4773 143.12 36.9867 142.762 36.528C142.41 36.0693 142.064 35.6213 141.722 35.184L139.994 32.968H139.242V31.192H139.97L141.498 29.368C141.856 28.936 142.21 28.5067 142.562 28.08C142.92 27.6533 143.33 27.1573 143.794 26.592H146.402C145.88 27.1947 145.368 27.7867 144.866 28.368C144.37 28.9493 143.869 29.5333 143.362 30.12L141.458 32.336L141.418 31.352L143.538 34.064C143.864 34.48 144.213 34.928 144.586 35.408C144.965 35.888 145.333 36.3547 145.69 36.808C146.048 37.2613 146.36 37.6587 146.626 38H143.906ZM137.202 38C137.202 37.3813 137.202 36.7813 137.202 36.2C137.202 35.6187 137.202 34.9733 137.202 34.264V30.408C137.202 29.6773 137.202 29.016 137.202 28.424C137.202 27.832 137.202 27.2213 137.202 26.592H139.442C139.442 27.2213 139.442 27.832 139.442 28.424C139.442 29.016 139.442 29.6773 139.442 30.408V34.264C139.442 34.9733 139.442 35.6187 139.442 36.2C139.442 36.7813 139.442 37.3813 139.442 38H137.202Z" fill="#CB1919"/>
<path d="M87.4673 56.161C86.6039 56.161 85.8409 56.0327 85.1783 55.776C84.5156 55.5147 83.9579 55.153 83.5053 54.691C83.0526 54.2243 82.7096 53.6783 82.4763 53.053C82.2429 52.423 82.1263 51.737 82.1263 50.995C82.1263 49.987 82.3339 49.0957 82.7493 48.321C83.1646 47.5417 83.7526 46.9327 84.5133 46.494C85.2786 46.0507 86.1839 45.829 87.2293 45.829C87.5793 45.829 87.9199 45.8523 88.2513 45.899C88.5826 45.9457 88.8953 46.0087 89.1893 46.088C89.4833 46.1627 89.7539 46.2467 90.0013 46.34C90.2533 46.4333 90.4703 46.5267 90.6523 46.62L90.5193 48.174C90.1319 47.9547 89.7539 47.7773 89.3853 47.642C89.0213 47.5067 88.6689 47.4087 88.3283 47.348C87.9876 47.2827 87.6609 47.25 87.3483 47.25C86.8349 47.25 86.3636 47.334 85.9343 47.502C85.5096 47.67 85.1386 47.915 84.8213 48.237C84.5039 48.559 84.2589 48.9533 84.0863 49.42C83.9136 49.882 83.8273 50.4093 83.8273 51.002C83.8273 51.5293 83.9019 52.024 84.0513 52.486C84.2006 52.9433 84.4293 53.347 84.7373 53.697C85.0453 54.047 85.4373 54.32 85.9133 54.516C86.3893 54.712 86.9516 54.81 87.6003 54.81C87.8709 54.81 88.1369 54.796 88.3983 54.768C88.6596 54.74 88.9139 54.698 89.1613 54.642C89.4133 54.5813 89.6606 54.5067 89.9033 54.418C90.1506 54.3247 90.3909 54.2127 90.6243 54.082L90.8203 55.587C90.6616 55.657 90.4609 55.727 90.2183 55.797C89.9756 55.8623 89.7049 55.923 89.4063 55.979C89.1123 56.035 88.7996 56.0793 88.4683 56.112C88.1416 56.1447 87.8079 56.161 87.4673 56.161ZM89.2663 55.615C89.2663 55.111 89.2663 54.67 89.2663 54.292C89.2663 53.914 89.2663 53.536 89.2663 53.158C89.2663 52.7147 89.2663 52.3227 89.2663 51.982C89.2663 51.6367 89.2663 51.2867 89.2663 50.932H90.8203C90.8203 51.2867 90.8203 51.6367 90.8203 51.982C90.8203 52.3227 90.8203 52.7147 90.8203 53.158C90.8203 53.536 90.8203 53.914 90.8203 54.292C90.8203 54.6653 90.8203 55.097 90.8203 55.587L89.2663 55.615ZM92.9125 56C92.9125 55.4493 92.9125 54.9197 92.9125 54.411C92.9125 53.9023 92.9125 53.3377 92.9125 52.717V49.357C92.9125 48.7223 92.9125 48.146 92.9125 47.628C92.9125 47.11 92.9125 46.5733 92.9125 46.018H94.5575C94.5575 46.5733 94.5575 47.11 94.5575 47.628C94.5575 48.146 94.5575 48.7223 94.5575 49.357V52.458C94.5575 53.0787 94.5575 53.6457 94.5575 54.159C94.5575 54.6677 94.5575 55.195 94.5575 55.741L93.9625 54.551H95.8385C96.3518 54.551 96.8045 54.551 97.1965 54.551C97.5932 54.551 97.9595 54.551 98.2955 54.551C98.6315 54.551 98.9768 54.551 99.3315 54.551V56H92.9125ZM105.297 56.168C104.429 56.168 103.673 56.0303 103.029 55.755C102.39 55.4797 101.858 55.1017 101.433 54.621C101.013 54.1403 100.698 53.5897 100.488 52.969C100.278 52.3483 100.173 51.6927 100.173 51.002C100.173 50.036 100.367 49.1633 100.754 48.384C101.146 47.6 101.718 46.9793 102.469 46.522C103.225 46.06 104.151 45.829 105.248 45.829C106.079 45.829 106.809 45.962 107.439 46.228C108.074 46.494 108.603 46.865 109.028 47.341C109.457 47.8123 109.779 48.3607 109.994 48.986C110.209 49.6113 110.316 50.2833 110.316 51.002C110.316 51.9867 110.12 52.8687 109.728 53.648C109.336 54.4273 108.764 55.0433 108.013 55.496C107.266 55.944 106.361 56.168 105.297 56.168ZM105.262 54.782C105.836 54.782 106.333 54.6793 106.753 54.474C107.173 54.2687 107.521 53.9887 107.796 53.634C108.071 53.2793 108.274 52.8757 108.405 52.423C108.54 51.9703 108.608 51.4967 108.608 51.002C108.608 50.47 108.536 49.9753 108.391 49.518C108.246 49.0607 108.032 48.6593 107.747 48.314C107.467 47.9687 107.119 47.7003 106.704 47.509C106.289 47.313 105.808 47.215 105.262 47.215C104.697 47.215 104.205 47.3153 103.785 47.516C103.365 47.7167 103.013 47.9943 102.728 48.349C102.448 48.7037 102.238 49.1073 102.098 49.56C101.958 50.0127 101.888 50.4933 101.888 51.002C101.888 51.506 101.956 51.9843 102.091 52.437C102.226 52.8897 102.432 53.2933 102.707 53.648C102.987 53.998 103.339 54.2757 103.764 54.481C104.189 54.6817 104.688 54.782 105.262 54.782ZM115.397 56C114.916 56 114.47 56 114.06 56C113.654 56 113.287 56 112.961 56C112.639 56 112.366 56 112.142 56C112.142 55.4493 112.142 54.9197 112.142 54.411C112.142 53.9023 112.142 53.3377 112.142 52.717V49.35C112.142 48.7247 112.142 48.1507 112.142 47.628C112.142 47.1053 112.142 46.5687 112.142 46.018C112.683 46.018 113.283 46.018 113.941 46.018C114.599 46.018 115.268 46.018 115.95 46.018C116.566 46.018 117.088 46.074 117.518 46.186C117.947 46.2933 118.292 46.4497 118.554 46.655C118.815 46.8557 119.006 47.1007 119.128 47.39C119.249 47.6747 119.31 47.9943 119.31 48.349C119.31 48.7737 119.23 49.1447 119.072 49.462C118.918 49.7793 118.705 50.0407 118.435 50.246C118.169 50.4513 117.865 50.603 117.525 50.701V50.848C117.889 50.9227 118.225 51.051 118.533 51.233C118.841 51.4103 119.088 51.6623 119.275 51.989C119.461 52.3157 119.555 52.731 119.555 53.235C119.555 53.6363 119.487 54.0073 119.352 54.348C119.221 54.684 118.999 54.9757 118.687 55.223C118.374 55.4703 117.949 55.6617 117.413 55.797C116.876 55.9323 116.204 56 115.397 56ZM113.752 54.663H115.537C116.087 54.663 116.533 54.6023 116.874 54.481C117.214 54.355 117.462 54.1753 117.616 53.942C117.774 53.7087 117.854 53.4287 117.854 53.102C117.854 52.5747 117.665 52.1943 117.287 51.961C116.913 51.723 116.386 51.604 115.705 51.604H113.381V50.316H115.663C116.115 50.316 116.484 50.246 116.769 50.106C117.058 49.9613 117.27 49.7723 117.406 49.539C117.541 49.301 117.609 49.0397 117.609 48.755C117.609 48.279 117.459 47.9267 117.161 47.698C116.862 47.4693 116.416 47.355 115.824 47.355H113.752C113.752 47.7283 113.752 48.1017 113.752 48.475C113.752 48.8483 113.752 49.2613 113.752 49.714V52.374C113.752 52.8127 113.752 53.214 113.752 53.578C113.752 53.9373 113.752 54.299 113.752 54.663ZM120.401 56C120.588 55.4633 120.784 54.8987 120.989 54.306C121.195 53.7133 121.393 53.151 121.584 52.619L122.774 49.189C122.994 48.573 123.19 48.0177 123.362 47.523C123.535 47.0237 123.71 46.522 123.887 46.018H126.022C126.204 46.536 126.379 47.0423 126.547 47.537C126.72 48.0317 126.914 48.5847 127.128 49.196L128.311 52.633C128.503 53.1837 128.699 53.7507 128.899 54.334C129.105 54.9127 129.298 55.468 129.48 56H127.772C127.59 55.4353 127.404 54.8567 127.212 54.264C127.021 53.6667 126.839 53.102 126.666 52.57L125.014 47.46H124.874L123.201 52.521C123.019 53.0717 122.83 53.648 122.634 54.25C122.438 54.852 122.247 55.4353 122.06 56H120.401ZM122.452 53.648L122.606 52.388H127.45L127.576 53.648H122.452ZM131.016 56C131.016 55.4493 131.016 54.9197 131.016 54.411C131.016 53.9023 131.016 53.3377 131.016 52.717V49.357C131.016 48.7223 131.016 48.146 131.016 47.628C131.016 47.11 131.016 46.5733 131.016 46.018H132.661C132.661 46.5733 132.661 47.11 132.661 47.628C132.661 48.146 132.661 48.7223 132.661 49.357V52.458C132.661 53.0787 132.661 53.6457 132.661 54.159C132.661 54.6677 132.661 55.195 132.661 55.741L132.066 54.551H133.942C134.455 54.551 134.908 54.551 135.3 54.551C135.697 54.551 136.063 54.551 136.399 54.551C136.735 54.551 137.08 54.551 137.435 54.551V56H131.016Z" fill="#CB1919"/>
</svg>
